<?xml version="1.0" standalone="no" ?>
<!DOCTYPE svg PUBLIC "-//W3C//DTD SVG 20010904//EN"
  "http://www.w3.org/TR/2001/REC-SVG-20010904/DTD/svg10.dtd">
<svg
  version="1.0"
  xmlns="http://www.w3.org/2000/svg"
  width="512.000000pt"
  height="512.000000pt"
  viewBox="0 0 512.000000 512.000000"
  preserveAspectRatio="xMidYMid meet"
>

<g
    transform="translate(0.000000,512.000000) scale(0.100000,-0.100000)"
    fill="#fff"
    stroke="none"
  >
<path
      d="M1053 4669 c-64 -25 -131 -88 -163 -154 l-25 -50 0 -1555 0 -1555 28
-57 c32 -65 89 -121 156 -152 45 -21 56 -21 699 -24 l652 -3 0 24 c0 13 -3 52
-6 85 l-7 62 -633 2 c-622 3 -633 3 -661 24 -15 11 -36 36 -45 55 -17 32 -18
126 -18 1538 l0 1503 22 39 c41 74 -38 70 1171 67 l1085 -3 27 -25 c58 -54 55
11 55 -1140 l0 -1060 69 0 c38 0 77 -3 85 -6 15 -6 16 89 14 1087 l-3 1094
-25 50 c-34 69 -99 129 -166 154 -54 21 -68 21 -1157 20 -1078 0 -1103 0
-1154 -20z"
    />
<path
      d="M1402 4305 c-86 -27 -151 -90 -180 -174 -19 -53 -16 -437 3 -491 21
-61 66 -112 127 -146 l53 -29 805 0 805 0 53 29 c30 17 67 47 83 67 55 69 60
104 57 345 -3 193 -5 224 -22 258 -27 53 -80 104 -135 130 -46 21 -54 21 -826
23 -635 2 -788 -1 -823 -12z"
    />
<path
      d="M1342 3264 c-85 -42 -132 -121 -132 -219 0 -100 50 -176 145 -221
184 -87 391 92 335 291 -16 56 -81 132 -135 156 -61 28 -149 25 -213 -7z"
    />
<path
      d="M2103 3269 c-92 -45 -153 -158 -138 -252 9 -56 52 -134 90 -163 123
-93 296 -59 367 72 57 106 43 210 -40 293 -73 73 -191 94 -279 50z"
    />
<path
      d="M2865 3272 c-52 -24 -118 -99 -133 -150 -57 -189 115 -365 303 -312
61 17 138 87 160 145 42 108 -2 239 -99 300 -63 39 -168 46 -231 17z"
    />
<path
      d="M1342 2614 c-86 -43 -132 -121 -132 -221 1 -75 25 -128 83 -179 155
-136 386 -42 404 166 17 185 -186 318 -355 234z"
    />
<path
      d="M2099 2613 c-174 -89 -181 -330 -12 -430 41 -24 59 -28 123 -28 64 0
82 4 123 28 170 100 163 341 -12 430 -40 20 -69 27 -111 27 -42 0 -71 -7 -111
-27z"
    />
<path
      d="M2881 2629 c-47 -14 -134 -104 -149 -155 -59 -200 123 -375 321 -308
186 63 213 333 43 438 -39 25 -61 31 -115 33 -36 1 -81 -2 -100 -8z"
    />
<path
      d="M3235 2105 c-314 -69 -563 -308 -646 -621 -31 -114 -31 -298 -1 -412
68 -255 228 -450 462 -561 135 -65 192 -76 370 -76 149 1 159 2 250 33 232 81
397 224 502 438 67 139 92 258 84 409 -8 171 -47 288 -142 431 -121 183 -313
314 -526 358 -93 19 -269 20 -353 1z m228 -295 c14 -11 28 -34 32 -50 5 -21
17 -35 42 -47 79 -37 141 -127 150 -217 5 -45 2 -56 -20 -81 -34 -40 -90 -41
-123 -1 -13 15 -24 38 -24 52 0 52 -31 88 -93 108 -25 8 -83 -18 -101 -46 -48
-74 -18 -120 107 -168 106 -41 129 -54 172 -92 134 -117 98 -345 -66 -428 -24
-13 -39 -29 -44 -47 -15 -60 -70 -86 -123 -59 -30 16 -42 34 -42 66 0 10 -13
23 -32 31 -86 35 -160 143 -162 235 -1 59 18 89 64 99 40 9 88 -18 96 -53 22
-98 51 -132 115 -132 74 0 133 87 96 143 -16 25 -48 43 -159 87 -88 36 -159
93 -190 154 -27 51 -29 153 -5 208 22 51 89 121 137 143 26 12 40 25 40 37 0
66 79 100 133 58z"
    />
<path
      d="M1367 1975 c-38 -13 -72 -38 -109 -80 -58 -66 -64 -198 -12 -281 78
-127 254 -153 366 -54 138 121 106 333 -62 409 -52 24 -127 26 -183 6z"
    />
<path
      d="M2099 1962 c-180 -94 -180 -343 0 -434 185 -94 399 71 351 271 -26
110 -128 191 -240 191 -44 0 -71 -7 -111 -28z"
    />
</g>
</svg>
