<?xml version="1.0" standalone="no" ?>
<!DOCTYPE svg PUBLIC "-//W3C//DTD SVG 20010904//EN"
  "http://www.w3.org/TR/2001/REC-SVG-20010904/DTD/svg10.dtd">
<svg
  version="1.0"
  xmlns="http://www.w3.org/2000/svg"
  width="512.000000pt"
  height="512.000000pt"
  viewBox="0 0 512.000000 512.000000"
  preserveAspectRatio="xMidYMid meet"
>

<g
    transform="translate(0.000000,512.000000) scale(0.100000,-0.100000)"
    fill="#f6f6f7"
    stroke="none"
  >
<path
      d="M1345 4940 c10 -17 1620 -1486 1649 -1505 32 -21 112 -23 149 -4 14
8 375 334 803 724 427 391 797 729 823 752 l46 42 -1738 1 c-1174 0 -1736 -3
-1732 -10z"
    />
<path
      d="M1196 4793 c-3 -21 -6 -263 -6 -538 l0 -499 189 -191 c225 -226 246
-258 246 -390 0 -117 -28 -170 -160 -304 -108 -110 -136 -155 -134 -218 1 -47
31 -158 42 -156 5 0 276 245 604 544 l594 542 -23 22 c-34 32 -1300 1187
-1325 1208 -20 17 -20 17 -27 -20z"
    />
<path
      d="M4257 4208 c-373 -341 -677 -623 -675 -628 2 -4 307 -285 678 -624
452 -413 677 -611 682 -603 10 15 10 2448 0 2464 -4 7 -254 -215 -685 -609z"
    />
<path
      d="M675 3920 c-50 -11 -64 -23 -223 -183 -138 -140 -156 -163 -191 -238
-63 -134 -82 -221 -88 -402 -6 -170 2 -244 43 -409 114 -455 471 -1013 965
-1507 479 -479 1017 -829 1469 -956 160 -45 268 -58 439 -52 182 6 279 26 408
87 77 36 99 54 240 192 85 84 162 166 170 182 19 37 19 106 -1 148 -9 19 -157
174 -329 345 -319 318 -337 333 -410 333 -42 0 -96 -37 -197 -135 -141 -138
-187 -160 -320 -159 -80 0 -110 5 -187 32 -120 41 -243 103 -373 189 -135 89
-225 165 -378 316 -203 200 -335 376 -438 580 -78 157 -109 261 -109 372 0
129 25 177 160 314 133 136 155 184 120 269 -11 24 -117 138 -313 335 -163
164 -310 308 -326 319 -34 25 -89 37 -131 28z"
    />
<path
      d="M3360 3389 c-136 -126 -229 -163 -348 -138 -82 16 -116 37 -217 128
-50 45 -95 80 -101 79 -15 -4 -1244 -1127 -1244 -1137 0 -5 12 -29 26 -55 l26
-46 1656 0 c1612 0 1656 0 1637 19 -11 10 -306 278 -655 596 -349 318 -648
591 -665 606 l-30 27 -85 -79z"
    />
</g>
</svg>
