<?xml version="1.0" standalone="no" ?>
<!DOCTYPE svg PUBLIC "-//W3C//DTD SVG 20010904//EN"
  "http://www.w3.org/TR/2001/REC-SVG-20010904/DTD/svg10.dtd">
<svg
  version="1.0"
  xmlns="http://www.w3.org/2000/svg"
  width="512.000000pt"
  height="512.000000pt"
  viewBox="0 0 512.000000 512.000000"
  preserveAspectRatio="xMidYMid meet"
>

<g
    transform="translate(0.000000,512.000000) scale(0.100000,-0.100000)"
    fill="#f6f6f7"
    stroke="none"
  >
<path
      d="M1482 5100 c-109 -29 -187 -74 -273 -160 -56 -55 -86 -95 -113 -150
-59 -122 -66 -173 -66 -537 l0 -322 -368 -3 -368 -3 -60 -30 c-64 -33 -115
-95 -134 -163 -6 -24 -10 -485 -10 -1343 0 -1435 -3 -1365 61 -1442 17 -21 54
-50 83 -65 l51 -27 373 -3 372 -3 0 -84 0 -84 -454 -3 c-443 -3 -455 -4 -483
-24 -75 -56 -92 -135 -52 -253 57 -167 201 -308 379 -373 l65 -23 1104 -3
c664 -1 1124 1 1155 7 102 19 208 70 300 144 l34 28 82 -41 c186 -94 364 -134
595 -134 234 0 407 39 606 140 145 72 234 137 355 258 199 198 316 414 376
689 32 150 32 400 -1 547 -129 588 -594 1012 -1184 1081 -189 22 -443 -7 -607
-70 -30 -12 -56 -21 -57 -21 -2 0 -3 155 -3 345 0 225 3 345 10 345 6 0 266
-114 579 -254 313 -140 591 -262 618 -271 26 -9 82 -19 123 -22 241 -16 463
145 526 382 16 59 18 182 3 245 -26 116 -118 245 -217 308 -40 26 -409 193
-1412 640 l-225 101 -3 47 c-8 116 54 264 141 341 77 68 189 113 280 113 78 0
117 90 62 145 l-24 25 -1073 -1 c-1023 0 -1076 -1 -1146 -19z m1735 -189 c-73
-81 -129 -210 -142 -328 l-7 -63 -534 0 -535 0 -24 -25 c-32 -31 -33 -82 -3
-121 13 -16 174 -200 359 -409 l336 -380 201 -90 202 -89 0 -431 0 -430 -78
-50 c-101 -65 -302 -265 -371 -370 -100 -152 -167 -317 -208 -506 -27 -127
-24 -390 5 -526 60 -279 175 -486 385 -697 l120 -120 -24 -19 c-38 -32 -123
-67 -189 -79 -211 -40 -438 120 -482 337 -12 63 -39 107 -81 139 -28 20 -40
21 -488 24 l-459 3 0 84 0 84 373 3 c410 3 406 3 481 68 20 18 47 52 59 74
l22 41 3 1333 c1 902 -1 1346 -8 1372 -16 58 -69 121 -130 155 l-55 30 -372 3
-373 4 0 317 c0 345 5 387 57 484 31 55 117 138 174 168 95 48 91 48 983 48
l838 1 -35 -39z m-671 -578 c-19 -54 -102 -232 -107 -230 -3 1 -43 45 -89 97
-46 52 -95 107 -109 123 l-25 27 168 0 c156 0 168 -1 162 -17z m340 -80 c-123
-277 -188 -419 -195 -426 -7 -7 -121 114 -121 130 0 4 39 95 86 201 l87 192
93 0 93 0 -43 -97z m804 -190 c316 -141 577 -258 579 -259 4 -4 -87 -214 -98
-227 -4 -4 -97 33 -207 83 -109 49 -207 90 -216 90 -73 1 -116 -91 -65 -139
12 -12 87 -51 167 -87 80 -36 168 -76 197 -89 l52 -23 -51 -114 c-27 -62 -51
-114 -53 -116 -1 -1 -137 58 -301 131 -164 74 -423 189 -574 257 -151 67 -279
126 -283 130 -8 7 74 205 92 223 5 5 115 -39 245 -97 130 -58 249 -106 265
-106 35 0 81 49 81 85 0 46 -41 73 -280 180 -147 65 -234 110 -232 117 7 28
95 218 101 218 3 0 265 -115 581 -257z m-1745 -338 l25 -24 0 -1310 0 -1310
-24 -28 -24 -28 -779 -3 c-541 -2 -789 0 -815 8 -73 21 -68 -77 -68 1360 0
1120 2 1295 15 1320 8 15 20 30 27 33 7 3 374 6 816 6 l803 1 24 -25z m2598
-43 c20 -8 37 -18 37 -23 0 -7 -268 -611 -274 -616 -6 -6 -156 68 -152 75 2 4
61 135 131 292 70 157 131 293 136 302 9 17 12 17 47 2 20 -9 54 -23 75 -32z
m260 -127 c207 -152 173 -473 -62 -584 -47 -22 -69 -26 -141 -25 -47 0 -97 6
-112 12 l-27 11 118 263 c65 145 127 284 139 311 11 26 25 47 29 47 4 0 29
-16 56 -35z m-873 -1009 c262 -40 493 -159 677 -349 170 -176 268 -359 319
-599 25 -115 25 -352 0 -468 -102 -474 -462 -834 -936 -936 -116 -25 -353 -25
-468 0 -161 34 -311 98 -445 187 -89 60 -256 231 -316 324 -230 353 -263 780
-90 1164 105 232 349 475 581 580 213 97 453 131 678 97z m-1863 -2089 c15
-71 65 -173 115 -234 l40 -48 -823 -3 c-501 -1 -844 2 -876 8 -151 27 -295
160 -329 303 l-6 27 934 0 934 0 11 -53z"
    />
<path
      d="M520 3559 c-70 -43 -88 -91 -89 -229 0 -151 22 -204 104 -241 37 -17
77 -19 580 -19 503 0 543 2 580 19 83 38 105 89 105 243 0 131 -16 180 -71
219 l-34 24 -570 3 c-568 2 -570 2 -605 -19z m1110 -234 l0 -85 -512 2 -513 3
-3 83 -3 82 516 0 515 0 0 -85z"
    />
<path
      d="M681 2883 c-162 -57 -213 -286 -92 -411 156 -160 420 -68 439 154 16
185 -168 320 -347 257z m132 -164 c27 -12 47 -47 47 -80 0 -26 -53 -79 -79
-79 -81 0 -119 94 -59 150 24 22 55 25 91 9z"
    />
<path
      d="M1372 2887 c-45 -14 -118 -81 -145 -131 -30 -57 -30 -165 0 -221 101
-190 363 -192 457 -3 101 202 -95 425 -312 355z m143 -182 c50 -50 23 -130
-47 -142 -32 -5 -41 -1 -68 25 -39 39 -39 74 -1 113 38 37 82 39 116 4z"
    />
<path
      d="M665 2276 c-84 -39 -134 -111 -142 -208 -16 -176 151 -313 322 -263
115 33 192 143 183 260 -12 140 -114 235 -253 235 -42 0 -75 -7 -110 -24z
m170 -171 c52 -51 14 -139 -60 -139 -29 0 -43 7 -61 28 -49 56 -13 136 61 136
25 0 44 -8 60 -25z"
    />
<path
      d="M1342 2274 c-155 -77 -186 -280 -62 -404 161 -162 430 -50 430 177 0
190 -198 312 -368 227z m173 -169 c76 -75 -37 -191 -116 -119 -37 34 -32 99
10 131 27 21 79 15 106 -12z"
    />
<path
      d="M717 1699 c-124 -30 -206 -143 -194 -267 12 -139 114 -233 252 -233
99 0 183 50 228 135 30 58 30 174 0 232 -25 47 -82 101 -127 119 -45 19 -115
25 -159 14z m121 -196 c48 -52 10 -133 -63 -133 -69 0 -108 73 -69 128 33 47
92 49 132 5z"
    />
<path
      d="M1389 1696 c-222 -60 -253 -364 -48 -469 171 -88 369 33 369 224 0
77 -19 120 -74 175 -38 39 -65 56 -105 68 -64 19 -80 19 -142 2z m129 -189
c28 -26 29 -75 1 -111 -16 -20 -29 -26 -60 -26 -92 0 -120 119 -37 155 38 16
64 11 96 -18z"
    />
<path
      d="M3699 2281 c-20 -16 -25 -31 -29 -87 l-5 -68 -57 -12 c-120 -28 -243
-113 -307 -212 -17 -27 -38 -79 -48 -116 -30 -125 12 -254 116 -356 64 -62
163 -115 246 -133 l55 -11 0 -254 0 -254 -27 6 c-58 14 -134 59 -172 102 -37
42 -44 60 -67 171 -5 24 -50 53 -83 53 -11 0 -33 -11 -48 -24 -25 -22 -28 -30
-27 -85 3 -167 162 -334 364 -384 l55 -14 5 -67 c6 -78 28 -106 85 -106 57 0
79 28 85 106 l5 67 55 14 c238 59 396 263 360 464 -6 35 -23 85 -37 113 -54
107 -197 211 -328 239 l-55 11 0 253 c0 288 -6 272 86 229 100 -46 155 -115
169 -210 12 -76 64 -112 121 -84 64 30 67 113 8 235 -57 119 -183 215 -322
247 l-57 12 -5 68 c-6 78 -28 106 -85 106 -18 0 -43 -9 -56 -19z m-29 -576 l0
-245 -27 6 c-41 10 -116 49 -152 80 -35 29 -65 81 -75 130 -19 86 52 195 159
245 102 49 95 65 95 -216z m251 -459 c186 -78 229 -269 88 -390 -37 -31 -131
-76 -159 -76 -6 0 -10 95 -10 246 l0 246 23 -6 c13 -3 39 -12 58 -20z"
    />
<path
      d="M2902 1917 c-33 -15 -106 -171 -139 -293 -34 -130 -39 -353 -9 -479
24 -106 72 -226 98 -247 27 -23 80 -23 109 1 32 26 29 75 -9 182 -77 216 -64
449 38 666 44 94 45 101 29 136 -19 42 -71 57 -117 34z"
    />
<path
      d="M4506 1904 c-34 -35 -33 -60 8 -147 112 -237 122 -490 30 -717 -30
-75 -30 -105 1 -135 28 -29 79 -33 112 -10 24 17 76 151 100 260 20 90 23 307
4 400 -18 89 -64 224 -103 296 -43 82 -102 102 -152 53z"
    />
</g>
</svg>
