<?xml version="1.0" standalone="no"?>
<!DOCTYPE svg PUBLIC "-//W3C//DTD SVG 20010904//EN"
 "http://www.w3.org/TR/2001/REC-SVG-20010904/DTD/svg10.dtd">
<svg version="1.0" xmlns="http://www.w3.org/2000/svg"
 width="800.000000pt" height="800.000000pt" viewBox="0 0 800.000000 800.000000"
 preserveAspectRatio="xMidYMid meet">

<g transform="translate(0.000000,800.000000) scale(0.100000,-0.100000)"
fill="#000000" stroke="none">
<path d="M3010 7449 c-57 -23 -117 -71 -148 -117 -42 -63 -50 -125 -27 -212
10 -36 21 -108 24 -160 8 -113 54 -247 106 -307 28 -33 33 -48 40 -118 8 -85
13 -101 54 -152 l25 -32 53 59 c41 45 67 64 111 80 31 12 67 28 80 36 82 52
78 50 62 30 -8 -11 -48 -48 -89 -83 -58 -49 -81 -63 -107 -63 -26 0 -42 -10
-82 -52 l-50 -52 -49 12 c-77 20 -107 2 -97 -60 5 -35 4 -37 -74 -96 -109 -83
-168 -144 -177 -184 -4 -18 -10 -208 -14 -423 l-6 -390 -39 2 c-63 4 -176 65
-232 125 l-49 53 105 5 c65 3 118 11 140 21 19 9 43 19 53 22 9 4 17 11 17 17
0 6 -65 10 -185 10 l-185 0 0 292 0 292 -45 42 -45 41 0 147 0 146 -35 0 -35
0 0 -147 0 -147 -42 -37 -43 -37 -3 -296 -3 -296 -79 0 -80 0 0 84 c0 76 3 88
25 114 41 49 55 95 55 182 l0 80 -91 0 -92 0 5 -93 c5 -95 13 -121 54 -170 21
-25 24 -39 24 -113 l0 -84 -176 0 c-135 0 -175 -3 -172 -12 3 -7 21 -17 41
-23 20 -6 42 -16 49 -23 7 -7 38 -12 73 -12 36 0 69 -6 81 -14 11 -8 40 -19
64 -26 25 -6 68 -27 96 -45 29 -19 78 -41 109 -49 32 -8 67 -24 79 -34 11 -11
44 -31 71 -45 28 -14 68 -45 91 -69 38 -40 41 -48 43 -102 3 -110 51 -152 206
-182 50 -9 95 -18 101 -20 26 -6 27 -230 5 -654 -26 -498 -26 -529 -6 -544 14
-10 114 -600 256 -1511 21 -136 91 -566 110 -670 15 -91 27 -119 59 -150 18
-17 30 -39 30 -54 0 -14 -22 -64 -49 -111 -27 -47 -52 -97 -56 -112 -8 -33
-56 -57 -220 -113 -60 -20 -118 -46 -127 -57 -28 -32 -22 -72 14 -109 32 -31
33 -32 110 -26 l78 5 0 -28 c0 -20 10 -35 35 -54 70 -53 94 -58 236 -47 197
16 348 58 417 116 24 20 39 25 57 21 26 -7 173 47 187 68 4 6 8 42 8 80 0 60
3 70 24 87 22 17 24 27 28 141 4 98 12 145 36 228 64 217 65 270 7 810 -61
572 -62 622 -34 1293 9 233 10 239 36 278 l26 40 -16 92 c-26 141 -37 244 -63
584 l-6 81 78 94 c43 51 95 120 116 152 l38 59 0 109 c0 59 4 108 9 108 17 0
131 -188 131 -215 0 -14 -24 -149 -54 -298 -30 -150 -66 -335 -81 -412 -14
-77 -32 -171 -40 -210 -8 -38 -39 -205 -70 -370 -30 -165 -58 -310 -60 -321
-4 -18 3 -25 35 -38 22 -9 49 -16 59 -16 16 0 20 -18 36 -172 27 -255 27 -267
-30 -1073 -31 -428 -65 -972 -65 -1036 l0 -65 48 -23 c36 -18 77 -26 170 -34
l122 -10 0 -34 c0 -21 5 -33 13 -33 8 0 19 -17 25 -38 21 -68 36 -75 181 -80
128 -5 129 -4 155 21 40 40 36 90 -15 162 -22 31 -38 60 -35 62 3 3 -11 49
-30 102 -19 53 -51 150 -70 216 -33 113 -35 132 -44 340 -5 121 -9 381 -10
577 0 241 -4 372 -12 402 -10 38 -9 50 9 92 24 55 57 189 102 404 17 80 33
155 36 168 4 17 12 22 39 22 42 0 36 22 77 -295 25 -198 31 -284 35 -491 2
-138 8 -334 13 -435 6 -117 7 -307 1 -519 -5 -184 -9 -399 -10 -477 l0 -142
32 -23 c18 -12 53 -25 78 -28 l45 -5 5 -50 c4 -38 9 -50 23 -51 14 -2 17 7 17
51 l0 53 40 6 c22 3 58 9 79 12 l40 6 39 -79 c59 -116 59 -116 194 -111 135 5
203 29 214 74 12 49 -12 76 -87 94 -67 16 -117 42 -124 63 -2 7 -9 95 -15 197
-12 199 -40 423 -70 560 -25 117 -45 245 -80 520 -17 129 -35 253 -40 275 -14
59 -11 134 6 180 32 82 68 318 90 598 l7 87 39 0 39 0 -5 88 c-3 48 -8 143
-11 212 -16 384 -57 1039 -70 1132 -5 40 -5 40 65 53 53 10 162 46 187 62 12
8 27 31 34 51 15 46 15 214 -1 315 -6 42 -8 86 -5 97 5 15 -2 31 -24 56 -26
29 -29 38 -20 55 11 22 -3 49 -26 49 -7 0 -32 33 -56 73 -63 105 -223 351
-265 405 -45 60 -78 76 -190 98 l-91 17 -14 41 c-22 63 -52 61 -127 -8 -64
-60 -77 -65 -108 -41 -14 11 -15 14 -3 9 29 -10 125 111 108 137 -17 26 -9 50
26 81 52 45 82 103 96 183 6 39 20 94 30 124 24 68 26 225 4 297 -21 70 -67
139 -116 171 -39 26 -50 28 -133 28 -74 -1 -99 -5 -133 -23 -23 -12 -49 -22
-57 -22 -52 0 -125 -129 -134 -238 -3 -46 -11 -71 -25 -85 -14 -14 -18 -27
-13 -51 10 -53 60 -140 88 -154 25 -11 27 -18 33 -107 7 -85 3 -143 -11 -180
-4 -8 34 -37 105 -81 60 -38 108 -71 105 -73 -2 -2 -9 1 -16 6 -22 18 -84 34
-102 27 -15 -6 -17 -19 -14 -95 2 -49 0 -89 -3 -89 -7 0 -106 112 -139 157
-23 33 -24 33 -44 14 -24 -22 -96 -61 -112 -61 -11 0 -24 128 -24 244 0 127
-75 187 -360 291 -127 46 -133 51 -195 143 -24 35 -43 52 -57 52 -20 0 -21 3
-16 111 5 100 8 113 31 137 13 15 30 37 36 49 17 34 16 90 -1 110 -10 11 -20
57 -28 123 -16 143 -39 194 -116 248 -95 68 -140 86 -224 89 -41 1 -86 -2
-100 -8z m265 -1151 c-104 -191 -154 -307 -306 -715 -45 -120 -83 -220 -86
-223 -12 -12 36 551 56 666 15 89 22 107 56 150 22 27 41 51 43 54 2 3 44 4
93 2 99 -3 92 -9 93 70 1 22 12 35 51 62 28 19 51 35 53 35 1 1 -23 -45 -53
-101z m1360 -498 c31 -16 72 -30 90 -30 30 0 34 -4 58 -58 82 -181 98 -259 73
-346 -9 -31 -21 -56 -26 -56 -16 0 -78 56 -257 234 l-172 170 38 17 c21 9 53
35 72 58 19 22 41 41 50 41 10 0 43 -13 74 -30z"/>
</g>
</svg>
