<?xml version="1.0" standalone="no" ?>
<!DOCTYPE svg PUBLIC "-//W3C//DTD SVG 20010904//EN"
  "http://www.w3.org/TR/2001/REC-SVG-20010904/DTD/svg10.dtd">
<svg
  version="1.0"
  xmlns="http://www.w3.org/2000/svg"
  width="512.000000pt"
  height="512.000000pt"
  viewBox="0 0 512.000000 512.000000"
  preserveAspectRatio="xMidYMid meet"
>

<g
    transform="translate(0.000000,512.000000) scale(0.100000,-0.100000)"
    fill="#f6f6f7"
    stroke="none"
  >
<path
      d="M1420 5107 c-48 -15 -113 -83 -128 -133 -6 -23 -12 -96 -12 -162 l0
-121 -359 -3 -359 -3 -44 -31 c-58 -43 -88 -102 -88 -172 0 -52 62 -193 972
-2216 858 -1907 977 -2166 1012 -2202 83 -85 209 -85 292 0 35 36 154 295
1013 2204 l973 2164 -4 63 c-5 78 -42 138 -109 172 -41 23 -48 23 -391 23
l-348 0 0 121 c0 67 -6 140 -12 163 -24 81 -118 146 -209 146 -20 0 -238 -82
-546 -205 l-513 -205 -513 205 c-534 214 -547 217 -627 192z m-140 -966 c0
-121 2 -132 28 -182 40 -76 103 -114 186 -113 55 0 109 20 564 202 l502 202
503 -202 c454 -182 508 -202 563 -202 83 -1 146 37 186 113 26 50 28 61 28
182 l0 129 155 0 c147 0 154 -1 147 -19 -23 -60 -1578 -3510 -1582 -3510 -4 0
-1559 3450 -1582 3510 -7 18 0 19 147 19 l155 0 0 -129z"
    />
<path
      d="M2480 3824 c-107 -46 -159 -174 -115 -282 64 -152 273 -172 369 -34
40 57 48 149 18 208 -54 104 -172 151 -272 108z"
    />
<path
      d="M2510 2981 c-105 -34 -160 -106 -160 -211 0 -58 23 -111 67 -152 104
-99 273 -65 334 67 34 74 19 176 -34 233 -47 51 -149 82 -207 63z"
    />
<path
      d="M2460 2108 c-25 -14 -58 -44 -75 -67 -27 -39 -30 -50 -30 -120 0 -68
3 -82 27 -117 15 -21 44 -50 65 -64 31 -21 48 -25 113 -25 65 0 82 4 113 25
21 14 50 43 65 64 24 35 27 49 27 116 0 67 -3 81 -27 116 -44 62 -90 88 -167
92 -55 3 -74 -1 -111 -20z"
    />
</g>
</svg>
